<?xml version="1.0" standalone="no"?>
<!DOCTYPE svg PUBLIC "-//W3C//DTD SVG 20010904//EN"
 "http://www.w3.org/TR/2001/REC-SVG-20010904/DTD/svg10.dtd">
<svg version="1.0" xmlns="http://www.w3.org/2000/svg"
 width="325.000000pt" height="294.000000pt" viewBox="0 0 325.000000 294.000000"
 preserveAspectRatio="xMidYMid meet">
<g transform="translate(0.000000,294.000000) scale(0.100000,-0.100000)"
fill="#0d6897" stroke="none">
<path d="M1517 2586 c-60 -16 -93 -40 -132 -95 l-30 -43 -3 -534 c-2 -346 1
-548 8 -573 5 -21 28 -59 51 -84 65 -75 79 -77 522 -77 263 0 392 4 421 12 59
17 111 61 140 120 l26 52 0 423 c0 399 -1 426 -19 461 -28 53 -298 318 -343
337 -50 20 -566 21 -641 1z m705 -283 l128 -127 0 -391 c0 -337 -2 -394 -16
-413 l-15 -22 -381 0 c-341 0 -383 2 -400 17 -17 15 -18 44 -18 517 0 276 4
506 8 513 17 27 67 32 311 32 l254 1 129 -127z"/>
<path d="M1057 2119 c-53 -12 -87 -32 -124 -71 -64 -67 -63 -54 -63 -625 0
-334 4 -532 11 -556 13 -49 73 -115 124 -138 37 -17 75 -19 450 -19 l410 0 51
24 c91 42 133 120 134 249 l0 78 -82 -3 -83 -3 -5 -65 c-3 -36 -11 -75 -18
-87 l-13 -23 -389 0 c-340 0 -391 2 -404 16 -14 14 -16 75 -16 519 0 444 2
505 16 519 11 12 35 16 85 16 38 0 69 3 69 8 1 4 2 42 3 85 l2 77 -40 0 c-22
0 -49 2 -60 4 -11 3 -37 0 -58 -5z"/>
</g>
</svg>
